#!OML:ASF I:\Actors\actors\Patient Classification 2\Patient 1\Session 1\actor1.ASF
:FULLY-SPECIFIED
:DEGREES
819
root -0.860952 17.881 6.38835 -5.95347 -4.30614 -3.12471
lowerback 12.0109 0.87279 2.0425
upperback -4.64204 1.72306 1.84159
thorax -11.8346 0.749185 0.477014
lowerneck -6.01304 -0.517671 0.808788
upperneck 17.2522 -0.736684 -0.474922
head 6.21063 -0.344295 -0.337617
rclavicle -1.32192e-014 2.98177e-015
rhumerus -58.1706 -15.122 -32.2039
rradius 65.3479
rwrist -18.0326
rhand 4.85132 -19.958
rfingers 7.12502
rthumb 30.2281 -47.5037
lclavicle -1.32192e-014 2.98177e-015
lhumerus -53.3354 13.1106 41.9812
lradius 62.0698
lwrist 23.2569
lhand -10.6321 -34.0406
lfingers 7.12502
lthumb 15.3749 -4.63224
rfemur 22.8499 1.38817 18.2625
rtibia -10.4783
rfoot -17.7708 -15.1857
rtoes 4.72075
lfemur 27.5296 -12.9256 -15.3682
ltibia -17.6693
lfoot -6.80087 15.8278
ltoes -18.2302
820
root -0.870249 17.8717 6.40392 -6.1368 -4.3164 -3.00762
lowerback 11.4833 0.9211 1.82481
upperback -4.56604 1.72622 1.79429
thorax -11.4347 0.768817 0.5548
lowerneck -5.55363 -0.541645 0.86652
upperneck 17.4854 -0.783497 -0.413727
head 6.2042 -0.357995 -0.330179
rclavicle 9.39258e-015 -9.54166e-015
rhumerus -59.6587 -16.831 -33.1219
rradius 65.2737
rwrist -18.3629
rhand 3.75245 -20.2918
rfingers 7.12502
rthumb 29.1793 -48.0246
lclavicle 9.39258e-015 -9.54166e-015
lhumerus -54.2181 14.7351 43.3901
lradius 61.8657
lwrist 23.3795
lhand -11.0388 -33.7676
lfingers 7.12502
lthumb 14.9831 -4.3296
rfemur 23.0145 1.75411 18.2494
rtibia -10.2656
rfoot -18.1764 -15.1592
rtoes 5.00919
lfemur 27.789 -13.1039 -15.592
ltibia -17.6337
lfoot -6.94919 15.9216
ltoes -18.515
821
root -0.881791 17.8643 6.41578 -6.23025 -4.33283 -3.00379
lowerback 10.8975 0.949565 1.69654
upperback -4.50063 1.72098 1.77237
thorax -11.0121 0.778523 0.612893
lowerneck -5.30091 -0.570585 0.925092
upperneck 17.9327 -0.840937 -0.345485
head 6.30168 -0.375549 -0.32286
rclavicle 9.74045e-015 -1.05356e-014
rhumerus -61.0799 -18.5011 -34.2192
rradius 64.9006
rwrist -18.5753
rhand 1.75699 -20.8606
rfingers 7.12502
rthumb 27.2722 -48.9085
lclavicle 9.74045e-015 -1.05356e-014
lhumerus -55.1444 16.16 44.9452
lradius 61.5313
lwrist 23.4808
lhand -11.5642 -33.4115
lfingers 7.12502
lthumb 14.477 -3.93653
rfemur 23.0786 2.09557 18.3681
rtibia -10.0736
rfoot -18.5625 -15.0839
rtoes 5.56333
lfemur 27.9234 -13.1954 -15.6227
ltibia -17.5976
lfoot -7.07087 15.9697
ltoes -18.7171
822
root -0.89485 17.859 6.42719 -6.29249 -4.353 -3.10566
lowerback 10.2932 0.95874 1.66088
upperback -4.44666 1.70706 1.76848
thorax -10.591 0.777831 0.640528
lowerneck -5.19781 -0.652563 0.94032
upperneck 18.5696 -0.976829 -0.236188
head 6.48613 -0.429836 -0.30204
rclavicle 1.51573e-014 1.43125e-014
rhumerus -62.4425 -19.9866 -35.5077
rradius 64.1674
rwrist -18.6223
rhand -0.838482 -21.3973
rfingers 7.12502
rthumb 24.787 -49.811
lclavicle 1.51573e-014 1.43125e-014
lhumerus -56.0562 17.3195 46.6779
lradius 60.9453
lwrist 23.7978
lhand -12.4585 -32.8792
lfingers 7.12502
lthumb 13.6152 -3.34445
rfemur 23.0904 1.98568 18.46
rtibia -9.87778
rfoot -18.7168 -14.7506
rtoes 5.20372
lfemur 28.0252 -13.1817 -15.4834
ltibia -17.577
lfoot -7.17622 15.945
ltoes -18.7858
823
root -0.909501 17.8539 6.44106 -6.4034 -4.39409 -3.1785
lowerback 9.7155 1.00247 1.59764
upperback -4.34827 1.73265 1.73083
thorax -10.1378 0.796648 0.639867
lowerneck -5.35139 -0.818936 0.928432
upperneck 19.3786 -1.23097 -0.131467
head 6.77173 -0.541836 -0.288895
rclavicle -4.77083e-015 7.05686e-015
rhumerus -63.775 -21.439 -36.8948
rradius 63.1301
rwrist -18.4062
rhand -2.67385 -21.7978
rfingers 7.12502
rthumb 23.027 -50.4422
lclavicle -4.77083e-015 7.05686e-015
lhumerus -56.7554 18.172 48.6972
lradius 60.0987
lwrist 24.5191
lhand -13.1667 -32.3091
lfingers 7.12502
lthumb 12.9325 -2.72986
rfemur 23.1413 1.89619 18.5375
rtibia -9.64683
rfoot -18.8337 -14.4961
rtoes 4.32756
lfemur 28.2128 -13.1146 -15.3709
ltibia -17.6031
lfoot -7.21614 15.8389
ltoes -18.7298
824
root -0.923869 17.8483 6.45324 -6.54649 -4.43498 -3.19311
lowerback 9.19764 1.05889 1.4664
upperback -4.20867 1.76724 1.68304
thorax -9.67847 0.823656 0.665166
lowerneck -5.72417 -0.941023 0.898223
upperneck 20.2868 -1.43811 0.026844
head 7.13216 -0.625609 -0.254613
rclavicle 2.40778e-014 9.74045e-015
rhumerus -64.9508 -22.7175 -38.4775
rradius 61.9387
rwrist -18.142
rhand -3.89487 -22.3011
rfingers 7.12502
rthumb 21.8549 -51.0869
lclavicle 2.40778e-014 9.74045e-015
lhumerus -57.2819 18.6019 51.1465
lradius 59.3009
lwrist 25.9029
lhand -13.7952 -31.0327
lfingers 7.12502
lthumb 12.3265 -1.41601
rfemur 23.2461 1.81867 18.5457
rtibia -9.45688
rfoot -18.8541 -14.2396
rtoes 4.23345
lfemur 28.4436 -13.0109 -15.3193
ltibia -17.6541
lfoot -7.19129 15.727
ltoes -18.8067
825
root -0.936284 17.8424 6.46109 -6.68676 -4.50178 -3.317
lowerback 8.75448 1.06809 1.42708
upperback -4.04942 1.75962 1.70325
thorax -9.2437 0.826366 0.718197
lowerneck -6.22197 -0.940956 0.800273
upperneck 21.2507 -1.49761 0.308931
head 7.53999 -0.630216 -0.15822
rclavicle 9.29318e-015 4.07509e-015
rhumerus -65.7795 -23.6453 -40.4002
rradius 60.5335
rwrist -17.9589
rhand -4.74184 -22.7597
rfingers 7.12502
rthumb 21.0414 -51.6382
lclavicle 9.29318e-015 4.07509e-015
lhumerus -57.7559 18.8455 53.735
lradius 58.2599
lwrist 27.0063
lhand -14.3303 -29.7754
lfingers 7.12502
lthumb 11.8107 -0.128476
rfemur 23.3823 1.74306 18.6907
rtibia -9.37256
rfoot -18.9971 -14.0164
rtoes 3.89195
lfemur 28.6741 -12.9017 -15.1465
ltibia -17.6995
lfoot -7.18459 15.6288
ltoes -18.8175
826
root -0.947664 17.8365 6.46805 -6.83835 -4.63014 -3.49549
lowerback 8.34906 1.07165 1.44741
upperback -3.86233 1.75379 1.74234
thorax -8.80184 0.826789 0.756876
lowerneck -6.84863 -0.888738 0.705471
upperneck 22.271 -1.49998 0.629712
head 7.99607 -0.600764 -0.043997
rclavicle 2.98177e-016 5.71506e-015
rhumerus -66.3091 -24.6371 -42.3948
rradius 58.6725
rwrist -17.591
rhand -5.30662 -23.1909
rfingers 7.12502
rthumb 20.4988 -52.1288
lclavicle 2.98177e-016 5.71506e-015
lhumerus -58.1434 19.0313 56.2331
lradius 56.6139
lwrist 26.9499
lhand -14.1854 -30.0385
lfingers 7.12502
lthumb 11.9503 -0.399621
rfemur 23.5513 1.7091 18.9257
rtibia -9.36709
rfoot -19.0335 -13.935
rtoes 3.14483
lfemur 28.9412 -12.8532 -14.9505
ltibia -17.7448
lfoot -7.24194 15.6053
ltoes -18.6635
827
root -0.957707 17.8327 6.47326 -6.97652 -4.78454 -3.60838
lowerback 7.94927 1.09721 1.41165
upperback -3.64984 1.7677 1.7514
thorax -8.33862 0.839022 0.792222
lowerneck -7.63388 -0.850061 0.653181
upperneck 23.2566 -1.51904 0.882833
head 8.47581 -0.579466 0.0407675
rclavicle 5.92627e-015 2.27857e-014
rhumerus -66.5505 -25.6868 -44.4296
rradius 56.3884
rwrist -17.1934
rhand -6.26108 -23.7484
rfingers 7.12502
rthumb 19.5814 -52.7823
lclavicle 5.92627e-015 2.27857e-014
lhumerus -58.4181 19.074 58.9036
lradius 55.1728
lwrist 27.0221
lhand -14.0507 -30.0865
lfingers 7.12502
lthumb 12.0803 -0.455218
rfemur 23.7272 1.71265 19.0863
rtibia -9.43943
rfoot -18.8739 -13.9291
rtoes 2.85833
lfemur 29.1916 -12.9093 -14.8842
ltibia -17.7806
lfoot -7.2803 15.7941
ltoes -19.0344
828
root -0.967334 17.829 6.47769 -7.12234 -4.88634 -3.64899
lowerback 7.61932 1.11196 1.27744
upperback -3.44379 1.75873 1.75779
thorax -7.92795 0.844536 0.882393
lowerneck -8.42049 -0.835824 0.617102
upperneck 24.1024 -1.5472 1.0104
head 8.91422 -0.572953 0.0816193
rclavicle -1.4856e-014 -7.87684e-015
rhumerus -66.5032 -26.293 -46.7812
rradius 53.9857
rwrist -16.8043
rhand -7.07542 -24.0566
rfingers 7.12502
rthumb 18.7983 -53.1683
lclavicle -1.4856e-014 -7.87684e-015
lhumerus -58.6767 19.0144 61.7564
lradius 54.2147
lwrist 27.4027
lhand -14.0662 -29.13
lfingers 7.12502
lthumb 12.0653 0.502203
rfemur 23.9719 1.68217 19.1465
rtibia -9.62796
rfoot -18.5593 -13.9467
rtoes 3.41793
lfemur 29.4076 -12.9933 -14.912
ltibia -17.7635
lfoot -7.32415 16.0046
ltoes -19.5104
829
root -0.977283 17.8248 6.48285 -7.26849 -4.92107 -3.63225
lowerback 7.40431 1.09917 1.06233
upperback -3.3077 1.71049 1.76671
thorax -7.66278 0.833493 1.02377
lowerneck -9.02963 -0.802607 0.660145
upperneck 24.8067 -1.52932 1.0115
head 9.27427 -0.552074 0.072452
rclavicle -6.45507e-015 1.69371e-014
rhumerus -66.2552 -26.4086 -49.312
rradius 51.4723
rwrist -15.9481
rhand -7.66962 -23.9093
rfingers 7.12502
rthumb 18.2267 -53.0754
lclavicle -6.45507e-015 1.69371e-014
lhumerus -59.0321 18.9725 64.4437
lradius 53.1734
lwrist 26.9567
lhand -13.6469 -28.9093
lfingers 7.12502
lthumb 12.4695 0.698737
rfemur 24.2636 1.59554 19.1334
rtibia -9.88493
rfoot -18.058 -14.0283
rtoes 4.37737
lfemur 29.5671 -12.9822 -14.9519
ltibia -17.6871
lfoot -7.41282 16.0422
ltoes -19.4408
830
root -0.985822 17.8225 6.48689 -7.36521 -4.94394 -3.58929
lowerback 7.24467 1.08412 0.846221
upperback -3.233 1.6626 1.76832
thorax -7.49566 0.821397 1.15647
lowerneck -9.59113 -0.746655 0.71954
upperneck 25.4485 -1.47443 0.985432
head 9.60738 -0.515816 0.0557356
rclavicle -1.14239e-014 3.47873e-016
rhumerus -65.8896 -26.2087 -51.8884
rradius 48.9669
rwrist -14.6088
rhand -7.42399 -23.5043
rfingers 7.12502
rthumb 18.463 -52.6482
lclavicle -1.14239e-014 3.47873e-016
lhumerus -59.3408 19.1572 66.8548
lradius 51.929
lwrist 25.8698
lhand -13.3749 -29.4133
lfingers 7.12502
lthumb 12.7318 0.178558
rfemur 24.4846 1.5021 19.0859
rtibia -10.1203
rfoot -17.6766 -14.1056
rtoes 4.38475
lfemur 29.6476 -12.9981 -15.0148
ltibia -17.5957
lfoot -7.50374 16.0951
ltoes -19.2815
831
root -0.99245 17.8218 6.49158 -7.44547 -4.93675 -3.56332
lowerback 7.11445 1.0819 0.712539
upperback -3.18046 1.64106 1.75215
thorax -7.36686 0.817191 1.21985
lowerneck -10.0447 -0.740496 0.728544
upperneck 25.9251 -1.4867 1.00134
head 9.86533 -0.512817 0.0557028
rclavicle 8.61918e-015 1.59028e-015
rhumerus -65.497 -25.8166 -54.5854
rradius 46.7325
rwrist -13.2137
rhand -6.22774 -22.5622
rfingers 7.12502
rthumb 19.6134 -51.5929
lclavicle 8.61918e-015 1.59028e-015
lhumerus -59.5149 19.5015 69.061
lradius 50.6694
lwrist 24.9751
lhand -13.5061 -29.8648
lfingers 7.12502
lthumb 12.6053 -0.26513
rfemur 24.6487 1.355 19.0278
rtibia -10.2703
rfoot -17.5414 -14.0281
rtoes 3.43091
lfemur 29.7184 -13.0468 -15.0612
ltibia -17.5393
lfoot -7.55678 16.1258
ltoes -19.2696
832
root -0.997747 17.8211 6.49765 -7.50626 -4.90011 -3.60048
lowerback 6.98492 1.08929 0.702505
upperback -3.14027 1.64491 1.72741
thorax -7.24845 0.819116 1.20132
lowerneck -10.3127 -0.771253 0.744758
upperneck 26.1694 -1.55296 1.04201
head 10.0059 -0.533973 0.05805
rclavicle 4.51614e-015 3.72721e-015
rhumerus -65.0881 -25.2518 -57.4805
rradius 44.842
rwrist -12.1416
rhand -6.08843 -21.8354
rfingers 7.12502
rthumb 19.7474 -50.8523
lclavicle 4.51614e-015 3.72721e-015
lhumerus -59.5675 19.8188 71.1283
lradius 49.4537
lwrist 24.5858
lhand -13.6926 -30.1607
lfingers 7.12502
lthumb 12.4255 -0.550003
rfemur 24.7548 1.20863 19.0436
rtibia -10.313
rfoot -17.5379 -13.9044
rtoes 3.00458
lfemur 29.7854 -12.9956 -14.9903
ltibia -17.5328
lfoot -7.52768 16.016
ltoes -19.4267
